<?xml version="1.0" encoding="UTF-8"?>
<!-- Generated by Pixelmator Pro 2.4.7 -->
<svg width="500" height="500" viewBox="0 0 500 500" xmlns="http://www.w3.org/2000/svg" xmlns:xlink="http://www.w3.org/1999/xlink">
    <path id="path1" fill="#ffffff" stroke="#000000" stroke-width="0.012528" stroke-linecap="round" stroke-linejoin="round" d="M 176.810944 372.671906 C 192.966843 394.381012 213.229599 412.705261 236.448517 426.604187 L 236.448517 359.61676 C 216.028198 360.960754 195.925171 365.36145 176.810944 372.671906 Z M 149.76091 385.35791 C 138.589859 391.632843 128.028397 398.935944 118.213737 407.172424 L 117.542519 407.172424 C 148.124405 433.052704 185.62883 449.389404 225.407013 454.157623 C 195.468658 437.025543 169.647797 413.541656 149.76091 385.35791 Z M 136.806427 264.740295 C 138.887192 294.508759 147.344543 322.532043 160.768875 347.434174 C 184.857544 337.505951 210.436798 331.675476 236.448517 330.183899 L 236.448517 264.740295 L 136.772873 264.740295 Z M 107.373581 264.740295 L 45.017574 264.740295 C 48.203163 310.079926 66.386383 353.070251 96.701248 386.935272 C 108.346848 376.867004 120.965721 367.93985 134.356491 360.321533 C 118.612579 330.764526 109.410172 298.166931 107.373581 264.740295 Z M 341.158295 348.0047 C 354.783997 322.934753 363.308411 294.743683 365.456299 264.773865 L 265.277283 264.773865 L 265.277283 330.251038 C 292.058838 331.929077 317.598602 338.104248 341.158295 348.038269 Z M 367.50351 361.093414 C 380.323761 368.476807 392.43924 377.06839 403.64856 386.733887 C 433.842529 352.903992 451.950439 310.006866 455.130859 264.773865 L 394.889191 264.773865 C 392.833038 298.48291 383.489685 331.34494 367.50351 361.093414 Z M 265.277283 426.87262 C 288.510773 413.053467 308.806946 394.809723 325.015533 373.175323 C 305.893097 365.704376 285.754456 361.156189 265.277283 359.683868 L 265.277283 426.906219 Z M 277.392731 453.821991 C 316.214905 448.659302 352.741547 432.469238 382.639496 407.172424 L 382.371033 407.172424 C 372.901428 399.227966 362.736298 392.151672 351.998444 386.029114 C 332.300293 413.734131 306.851746 436.858765 277.392731 453.821991 Z M 160.802429 152.613586 C 147.011276 178.18103 138.830704 206.395416 136.806427 235.374573 L 236.448517 235.374573 L 236.448517 169.830292 C 210.452026 168.356384 184.884567 162.548706 160.802429 152.647125 Z M 134.390045 139.726196 C 121.00248 132.139618 108.390465 123.259521 96.73481 113.213165 C 66.426773 147.069275 48.244022 190.046692 45.051136 235.374573 L 107.373581 235.374573 C 109.411041 201.922516 118.625206 169.300903 134.390045 139.726196 Z M 236.414963 73.544281 C 213.253601 87.427704 193.038055 105.716278 176.911621 127.375854 C 195.997452 134.653534 216.06572 139.031433 236.448517 140.363861 L 236.448517 73.544281 Z M 225.407013 45.990845 C 185.724442 50.727905 148.297165 66.979828 117.743889 92.741058 L 118.012367 92.741058 C 127.912811 101.064148 138.551605 108.413971 149.794479 114.723389 C 169.679169 86.567749 195.487717 63.107483 225.407013 45.990845 Z M 324.914825 126.771729 C 308.719299 105.207794 288.459167 87.022675 265.277283 73.242218 L 265.277283 140.263214 C 285.720276 138.780334 305.824158 134.232391 324.914825 126.771729 Z M 351.864227 113.884369 C 362.590454 107.760132 372.744324 100.683838 382.203217 92.741058 L 382.404541 92.741058 C 352.550751 67.586151 316.126038 51.493103 277.42627 46.360016 C 306.800842 63.27475 332.188873 86.316284 351.864227 113.917969 Z M 365.456299 235.374573 C 363.40683 206.124207 355.085449 177.657654 341.057648 151.908813 C 316.969757 162.033417 291.354279 168.045929 265.277283 169.696045 L 265.277283 235.374573 L 365.456299 235.374573 Z M 394.889191 235.374573 L 455.130859 235.374573 C 451.937988 190.046692 433.755219 147.069275 403.447205 113.213165 C 392.263153 122.87149 380.19519 131.456116 367.402863 138.853638 C 383.042206 167.917297 392.741333 200.60556 394.889191 235.408142 Z M 250.074219 485 C 166.143311 485 88.587967 440.223419 46.622528 367.537109 C 4.657074 294.85083 4.657074 205.297607 46.622528 132.611328 C 88.587967 59.925049 166.143311 15.148438 250.074219 15.148438 C 334.005127 15.148438 411.560455 59.925049 453.525909 132.611328 C 495.491364 205.297607 495.491364 294.85083 453.525909 367.537109 C 411.560455 440.223419 334.005127 485 250.074219 485 Z"/>
</svg>
